# xmcd
#
# Track frame offsets:
#	150
#	11796
#	25400
#	38461
#	48826
#	62312
#	74843
#	87061
#	98478
#	112542
#	124732
#	138935
#	154409
#	167505
#	183018
#	195884
#	214072
#	227447
#	241440
#	253836
#	266707
#	275407
#
# Disc length: 3840 seconds
#
# Revision: 0
# Processed by: cddbd v1.5.1PL2 Copyright (c) Steve Scherf et al.
# Submitted via: audiograbber 1.83.01
#
DISCID=1a0efe16
DTITLE=Don Williams - Visions Of Harmony
DYEAR=1977
DGENRE=Country
TTITLE0=Time On My Hands
TTITLE1=I'll Forgive But I'll Never Forget
TTITLE2=I'm Getting Good At Missing You
TTITLE3=In The Mornin'
TTITLE4=Missing You Missing Me
TTITLE5=Some Broken Hearts Never Mend
TTITLE6=Fallin' In Love Again
TTITLE7=We Can Sing
TTITLE8=I'll Need Someone To Hold Me When I Cry
TTITLE9=Expert At Everything
TTITLE10=Cup O' Tea
TTITLE11=Till The Rivers All Run Dry
TTITLE12=You Keep Coming 'Round
TTITLE13=Don't You think It's Time
TTITLE14=I Don't Want The Money
TTITLE15=Where The Arkansas River Leaves Oklahoma
TTITLE16=Say It Again
TTITLE17=Maybe I Just Don't Know
TTITLE18=Magic Carpet
TTITLE19=Time
TTITLE20=Ramblin' (Instrumental)
TTITLE21=She Never Knew Me
EXTD=
EXTT0=
EXTT1=
EXTT2=
EXTT3=
EXTT4=
EXTT5=
EXTT6=
EXTT7=
EXTT8=
EXTT9=
EXTT10=
EXTT11=
EXTT12=
EXTT13=
EXTT14=
EXTT15=
EXTT16=
EXTT17=
EXTT18=
EXTT19=
EXTT20=
EXTT21=
PLAYORDER=
